{
    "asset" : {
        "version" : "2.0",
        "generator" : "Khronos glTF Blender I/O v1.2.20"
    },
    "scene" : 0,
    "scenes" : [
        {
            "name" : "Scene",
            "extras" : {
                "glTF2ExportSettings" : {
                    "export_materials" : 0,
                    "export_skins" : 0,
                    "export_colors" : 0,
                    "export_morph" : 0,
                    "export_extras" : 1,
                    "export_format" : "GLTF_EMBEDDED"
                }
            },
            "nodes" : [
                0,
                1,
                2,
                3,
                4,
                5,
                6,
                7,
                8,
                9
            ]
        }
    ],
    "nodes" : [
        {
            "translation" : [
                -1,
                2,
                4
            ],
            "mesh" : 0,
            "extras" : {
                "deadly" : 1
            },
            "name" : "Cube.007"
        },
        {
            "translation" : [
                -2,
                -1,
                1
            ],
            "mesh" : 1,
            "name" : "Cube.001"
        },
        {
            "translation" : [
                1,
                5,
                6
            ],
            "mesh" : 2,
            "name" : "Cube.002"
        },
        {
            "translation" : [
                -2,
                1,
                5
            ],
            "mesh" : 3,
            "name" : "Cube.006"
        },
        {
            "translation" : [
                1,
                3,
                3
            ],
            "mesh" : 4,
            "name" : "Cube.005"
        },
        {
            "translation" : [
                -1,
                6,
                0
            ],
            "name" : "end"
        },
        {
            "translation" : [
                1,
                3,
                3
            ],
            "mesh" : 5,
            "name" : "Cube.004"
        },
        {
            "translation" : [
                3,
                4,
                4
            ],
            "mesh" : 6,
            "name" : "Cube.003"
        },
        {
            "translation" : [
                1,
                1,
                0
            ],
            "name" : "start"
        },
        {
            "mesh" : 7,
            "extras" : {},
            "name" : "Cube"
        }
    ],
    "animations" : [
        {
            "samplers" : [
                {
                    "output" : 24,
                    "interpolation" : "LINEAR",
                    "input" : 23
                }
            ],
            "channels" : [
                {
                    "sampler" : 0,
                    "target" : {
                        "node" : 3,
                        "path" : "translation"
                    }
                }
            ],
            "name" : "Cube.006Action"
        },
        {
            "samplers" : [
                {
                    "output" : 25,
                    "interpolation" : "LINEAR",
                    "input" : 23
                }
            ],
            "channels" : [
                {
                    "sampler" : 0,
                    "target" : {
                        "node" : 4,
                        "path" : "translation"
                    }
                }
            ],
            "name" : "original"
        },
        {
            "samplers" : [
                {
                    "output" : 26,
                    "interpolation" : "LINEAR",
                    "input" : 23
                }
            ],
            "channels" : [
                {
                    "sampler" : 0,
                    "target" : {
                        "node" : 5,
                        "path" : "translation"
                    }
                }
            ],
            "name" : "endAction"
        },
        {
            "samplers" : [
                {
                    "output" : 27,
                    "interpolation" : "LINEAR",
                    "input" : 23
                }
            ],
            "channels" : [
                {
                    "sampler" : 0,
                    "target" : {
                        "node" : 6,
                        "path" : "translation"
                    }
                }
            ],
            "name" : "Cube.004Action"
        },
        {
            "samplers" : [
                {
                    "output" : 28,
                    "interpolation" : "LINEAR",
                    "input" : 23
                }
            ],
            "channels" : [
                {
                    "sampler" : 0,
                    "target" : {
                        "node" : 7,
                        "path" : "translation"
                    }
                }
            ],
            "name" : "Cube.003Action"
        },
        {
            "samplers" : [
                {
                    "output" : 29,
                    "interpolation" : "LINEAR",
                    "input" : 23
                }
            ],
            "channels" : [
                {
                    "sampler" : 0,
                    "target" : {
                        "node" : 8,
                        "path" : "translation"
                    }
                }
            ],
            "name" : "start locationAction"
        },
        {
            "samplers" : [
                {
                    "output" : 30,
                    "interpolation" : "LINEAR",
                    "input" : 23
                }
            ],
            "channels" : [
                {
                    "sampler" : 0,
                    "target" : {
                        "node" : 9,
                        "path" : "translation"
                    }
                }
            ],
            "name" : "CubeAction"
        }
    ],
    "meshes" : [
        {
            "primitives" : [
                {
                    "indices" : 2,
                    "attributes" : {
                        "POSITION" : 0,
                        "NORMAL" : 1
                    }
                }
            ],
            "name" : "Cube.009"
        },
        {
            "primitives" : [
                {
                    "indices" : 5,
                    "attributes" : {
                        "POSITION" : 3,
                        "NORMAL" : 4
                    }
                }
            ],
            "name" : "Cube.008"
        },
        {
            "primitives" : [
                {
                    "indices" : 8,
                    "attributes" : {
                        "POSITION" : 6,
                        "NORMAL" : 7
                    }
                }
            ],
            "name" : "Cube.007"
        },
        {
            "primitives" : [
                {
                    "indices" : 11,
                    "attributes" : {
                        "POSITION" : 9,
                        "NORMAL" : 10
                    }
                }
            ],
            "name" : "Cube.006"
        },
        {
            "primitives" : [
                {
                    "indices" : 2,
                    "attributes" : {
                        "POSITION" : 12,
                        "NORMAL" : 13
                    }
                }
            ],
            "name" : "Cube.005"
        },
        {
            "primitives" : [
                {
                    "indices" : 16,
                    "attributes" : {
                        "POSITION" : 14,
                        "NORMAL" : 15
                    }
                }
            ],
            "name" : "Cube.004"
        },
        {
            "primitives" : [
                {
                    "indices" : 19,
                    "attributes" : {
                        "POSITION" : 17,
                        "NORMAL" : 18
                    }
                }
            ],
            "name" : "Cube.003"
        },
        {
            "primitives" : [
                {
                    "indices" : 22,
                    "attributes" : {
                        "POSITION" : 20,
                        "NORMAL" : 21
                    }
                }
            ],
            "name" : "Cube"
        }
    ],
    "accessors" : [
        {
            "min" : [
                -0.5,
                -0.5,
                -0.5
            ],
            "componentType" : 5126,
            "count" : 24,
            "bufferView" : 0,
            "type" : "VEC3",
            "max" : [
                1.5,
                4.5,
                0.5
            ]
        },
        {
            "count" : 24,
            "bufferView" : 1,
            "type" : "VEC3",
            "componentType" : 5126
        },
        {
            "count" : 36,
            "bufferView" : 2,
            "type" : "SCALAR",
            "componentType" : 5123
        },
        {
            "min" : [
                -1.5,
                -1.5,
                -0.5
            ],
            "componentType" : 5126,
            "count" : 54,
            "bufferView" : 3,
            "type" : "VEC3",
            "max" : [
                0.5,
                0.5,
                0.5
            ]
        },
        {
            "count" : 54,
            "bufferView" : 4,
            "type" : "VEC3",
            "componentType" : 5126
        },
        {
            "count" : 102,
            "bufferView" : 5,
            "type" : "SCALAR",
            "componentType" : 5123
        },
        {
            "min" : [
                -5.5,
                -0.5,
                -2.5
            ],
            "componentType" : 5126,
            "count" : 117,
            "bufferView" : 6,
            "type" : "VEC3",
            "max" : [
                1.5,
                4.5,
                1.5
            ]
        },
        {
            "count" : 117,
            "bufferView" : 7,
            "type" : "VEC3",
            "componentType" : 5126
        },
        {
            "count" : 252,
            "bufferView" : 8,
            "type" : "SCALAR",
            "componentType" : 5123
        },
        {
            "min" : [
                -2.5,
                -1.5,
                -0.5
            ],
            "componentType" : 5126,
            "count" : 80,
            "bufferView" : 9,
            "type" : "VEC3",
            "max" : [
                0.5,
                0.5,
                2.5
            ]
        },
        {
            "count" : 80,
            "bufferView" : 10,
            "type" : "VEC3",
            "componentType" : 5126
        },
        {
            "count" : 156,
            "bufferView" : 11,
            "type" : "SCALAR",
            "componentType" : 5123
        },
        {
            "min" : [
                -0.5,
                -1.5,
                -0.5
            ],
            "componentType" : 5126,
            "count" : 24,
            "bufferView" : 12,
            "type" : "VEC3",
            "max" : [
                0.5,
                2.5,
                0.5
            ]
        },
        {
            "count" : 24,
            "bufferView" : 13,
            "type" : "VEC3",
            "componentType" : 5126
        },
        {
            "min" : [
                -4.5,
                -2.5,
                -2.5
            ],
            "componentType" : 5126,
            "count" : 160,
            "bufferView" : 14,
            "type" : "VEC3",
            "max" : [
                1.5,
                4.5,
                1.5
            ]
        },
        {
            "count" : 160,
            "bufferView" : 15,
            "type" : "VEC3",
            "componentType" : 5126
        },
        {
            "count" : 348,
            "bufferView" : 16,
            "type" : "SCALAR",
            "componentType" : 5123
        },
        {
            "min" : [
                -2.5,
                -0.5,
                -0.5
            ],
            "componentType" : 5126,
            "count" : 80,
            "bufferView" : 17,
            "type" : "VEC3",
            "max" : [
                0.5,
                1.5,
                1.5
            ]
        },
        {
            "count" : 80,
            "bufferView" : 18,
            "type" : "VEC3",
            "componentType" : 5126
        },
        {
            "count" : 174,
            "bufferView" : 19,
            "type" : "SCALAR",
            "componentType" : 5123
        },
        {
            "min" : [
                -2.500000238418579,
                -0.5000007152557373,
                -1.5000004768371582
            ],
            "componentType" : 5126,
            "count" : 226,
            "bufferView" : 20,
            "type" : "VEC3",
            "max" : [
                4.499999046325684,
                7.5,
                3.50000262260437
            ]
        },
        {
            "count" : 226,
            "bufferView" : 21,
            "type" : "VEC3",
            "componentType" : 5126
        },
        {
            "count" : 360,
            "bufferView" : 22,
            "type" : "SCALAR",
            "componentType" : 5123
        },
        {
            "min" : [
                0
            ],
            "componentType" : 5126,
            "count" : 694,
            "bufferView" : 23,
            "type" : "SCALAR",
            "max" : [
                28.875
            ]
        },
        {
            "count" : 694,
            "bufferView" : 24,
            "type" : "VEC3",
            "componentType" : 5126
        },
        {
            "count" : 694,
            "bufferView" : 25,
            "type" : "VEC3",
            "componentType" : 5126
        },
        {
            "count" : 694,
            "bufferView" : 26,
            "type" : "VEC3",
            "componentType" : 5126
        },
        {
            "count" : 694,
            "bufferView" : 27,
            "type" : "VEC3",
            "componentType" : 5126
        },
        {
            "count" : 694,
            "bufferView" : 28,
            "type" : "VEC3",
            "componentType" : 5126
        },
        {
            "count" : 694,
            "bufferView" : 29,
            "type" : "VEC3",
            "componentType" : 5126
        },
        {
            "count" : 694,
            "bufferView" : 30,
            "type" : "VEC3",
            "componentType" : 5126
        }
    ],
    "bufferViews" : [
        {
            "buffer" : 0,
            "byteLength" : 288,
            "byteOffset" : 0
        },
        {
            "buffer" : 0,
            "byteLength" : 288,
            "byteOffset" : 288
        },
        {
            "buffer" : 0,
            "byteLength" : 72,
            "byteOffset" : 576
        },
        {
            "buffer" : 0,
            "byteLength" : 648,
            "byteOffset" : 648
        },
        {
            "buffer" : 0,
            "byteLength" : 648,
            "byteOffset" : 1296
        },
        {
            "buffer" : 0,
            "byteLength" : 204,
            "byteOffset" : 1944
        },
        {
            "buffer" : 0,
            "byteLength" : 1404,
            "byteOffset" : 2148
        },
        {
            "buffer" : 0,
            "byteLength" : 1404,
            "byteOffset" : 3552
        },
        {
            "buffer" : 0,
            "byteLength" : 504,
            "byteOffset" : 4956
        },
        {
            "buffer" : 0,
            "byteLength" : 960,
            "byteOffset" : 5460
        },
        {
            "buffer" : 0,
            "byteLength" : 960,
            "byteOffset" : 6420
        },
        {
            "buffer" : 0,
            "byteLength" : 312,
            "byteOffset" : 7380
        },
        {
            "buffer" : 0,
            "byteLength" : 288,
            "byteOffset" : 7692
        },
        {
            "buffer" : 0,
            "byteLength" : 288,
            "byteOffset" : 7980
        },
        {
            "buffer" : 0,
            "byteLength" : 1920,
            "byteOffset" : 8268
        },
        {
            "buffer" : 0,
            "byteLength" : 1920,
            "byteOffset" : 10188
        },
        {
            "buffer" : 0,
            "byteLength" : 696,
            "byteOffset" : 12108
        },
        {
            "buffer" : 0,
            "byteLength" : 960,
            "byteOffset" : 12804
        },
        {
            "buffer" : 0,
            "byteLength" : 960,
            "byteOffset" : 13764
        },
        {
            "buffer" : 0,
            "byteLength" : 348,
            "byteOffset" : 14724
        },
        {
            "buffer" : 0,
            "byteLength" : 2712,
            "byteOffset" : 15072
        },
        {
            "buffer" : 0,
            "byteLength" : 2712,
            "byteOffset" : 17784
        },
        {
            "buffer" : 0,
            "byteLength" : 720,
            "byteOffset" : 20496
        },
        {
            "buffer" : 0,
            "byteLength" : 2776,
            "byteOffset" : 21216
        },
        {
            "buffer" : 0,
            "byteLength" : 8328,
            "byteOffset" : 23992
        },
        {
            "buffer" : 0,
            "byteLength" : 8328,
            "byteOffset" : 32320
        },
        {
            "buffer" : 0,
            "byteLength" : 8328,
            "byteOffset" : 40648
        },
        {
            "buffer" : 0,
            "byteLength" : 8328,
            "byteOffset" : 48976
        },
        {
            "buffer" : 0,
            "byteLength" : 8328,
            "byteOffset" : 57304
        },
        {
            "buffer" : 0,
            "byteLength" : 8328,
            "byteOffset" : 65632
        },
        {
            "buffer" : 0,
            "byteLength" : 8328,
            "byteOffset" : 73960
        }
    ],
    "buffers" : [
        {
            "uri" : "data:application/octet-stream;base64,",
            "byteLength" : 82288
        }
    ]
}
