{
    "asset" : {
        "version" : "2.0",
        "generator" : "Khronos glTF Blender I/O v1.2.20"
    },
    "scene" : 0,
    "scenes" : [
        {
            "name" : "Scene",
            "nodes" : [
                0,
                1,
                2,
                3,
                4,
                5,
                6,
                7,
                8
            ],
            "extras" : {
                "glTF2ExportSettings" : {
                    "export_format" : "GLTF_EMBEDDED",
                    "export_extras" : 1,
                    "export_materials" : 0,
                    "export_morph" : 0,
                    "export_colors" : 0,
                    "export_skins" : 0
                }
            }
        }
    ],
    "nodes" : [
        {
            "name" : "Cube.005",
            "mesh" : 0,
            "translation" : [
                -7,
                2,
                3
            ]
        },
        {
            "name" : "Cube.003",
            "mesh" : 1,
            "translation" : [
                -3,
                1,
                0
            ]
        },
        {
            "name" : "end",
            "translation" : [
                0,
                4,
                -3
            ]
        },
        {
            "name" : "Cube.007",
            "mesh" : 2,
            "translation" : [
                -4,
                3,
                -1
            ]
        },
        {
            "name" : "Cube.004",
            "mesh" : 3,
            "translation" : [
                2,
                4,
                8
            ]
        },
        {
            "name" : "Cube.002",
            "mesh" : 4,
            "translation" : [
                -2,
                3,
                8
            ]
        },
        {
            "name" : "Cube.001",
            "mesh" : 5,
            "translation" : [
                -4,
                0,
                0
            ]
        },
        {
            "name" : "start",
            "translation" : [
                0,
                1,
                0
            ]
        },
        {
            "name" : "Cube",
            "mesh" : 6,
            "extras" : {}
        }
    ],
    "animations" : [
        {
            "samplers" : [
                {
                    "input" : 21,
                    "output" : 22,
                    "interpolation" : "LINEAR"
                }
            ],
            "name" : "Cube.001Action.001",
            "channels" : [
                {
                    "sampler" : 0,
                    "target" : {
                        "path" : "translation",
                        "node" : 6
                    }
                }
            ]
        }
    ],
    "meshes" : [
        {
            "name" : "Cube.010",
            "primitives" : [
                {
                    "attributes" : {
                        "POSITION" : 0,
                        "NORMAL" : 1
                    },
                    "indices" : 2
                }
            ]
        },
        {
            "name" : "Cube.006",
            "primitives" : [
                {
                    "attributes" : {
                        "POSITION" : 3,
                        "NORMAL" : 4
                    },
                    "indices" : 5
                }
            ]
        },
        {
            "name" : "Cube.008",
            "primitives" : [
                {
                    "attributes" : {
                        "POSITION" : 6,
                        "NORMAL" : 7
                    },
                    "indices" : 8
                }
            ]
        },
        {
            "name" : "Cube.004",
            "primitives" : [
                {
                    "attributes" : {
                        "POSITION" : 9,
                        "NORMAL" : 10
                    },
                    "indices" : 11
                }
            ]
        },
        {
            "name" : "Cube.002",
            "primitives" : [
                {
                    "attributes" : {
                        "POSITION" : 12,
                        "NORMAL" : 13
                    },
                    "indices" : 14
                }
            ]
        },
        {
            "name" : "Cube.001",
            "primitives" : [
                {
                    "attributes" : {
                        "POSITION" : 15,
                        "NORMAL" : 16
                    },
                    "indices" : 17
                }
            ]
        },
        {
            "name" : "Cube",
            "primitives" : [
                {
                    "attributes" : {
                        "POSITION" : 18,
                        "NORMAL" : 19
                    },
                    "indices" : 20
                }
            ]
        }
    ],
    "accessors" : [
        {
            "bufferView" : 0,
            "type" : "VEC3",
            "max" : [
                1.5,
                0.5,
                0.5
            ],
            "min" : [
                -0.5,
                -0.5,
                -0.5
            ],
            "count" : 62,
            "componentType" : 5126
        },
        {
            "bufferView" : 1,
            "componentType" : 5126,
            "count" : 62,
            "type" : "VEC3"
        },
        {
            "bufferView" : 2,
            "componentType" : 5123,
            "count" : 114,
            "type" : "SCALAR"
        },
        {
            "bufferView" : 3,
            "type" : "VEC3",
            "max" : [
                1.5,
                0.5,
                0.5
            ],
            "min" : [
                -4.5,
                -1.5,
                -5.5
            ],
            "count" : 128,
            "componentType" : 5126
        },
        {
            "bufferView" : 4,
            "componentType" : 5126,
            "count" : 128,
            "type" : "VEC3"
        },
        {
            "bufferView" : 5,
            "componentType" : 5123,
            "count" : 276,
            "type" : "SCALAR"
        },
        {
            "bufferView" : 6,
            "type" : "VEC3",
            "max" : [
                1.5,
                4.5,
                0.5
            ],
            "min" : [
                -0.5,
                -0.5,
                -1.5
            ],
            "count" : 99,
            "componentType" : 5126
        },
        {
            "bufferView" : 7,
            "componentType" : 5126,
            "count" : 99,
            "type" : "VEC3"
        },
        {
            "bufferView" : 8,
            "componentType" : 5123,
            "count" : 192,
            "type" : "SCALAR"
        },
        {
            "bufferView" : 9,
            "type" : "VEC3",
            "max" : [
                3.5,
                1.5,
                2.5
            ],
            "min" : [
                -3.5,
                -0.5,
                -0.5
            ],
            "count" : 150,
            "componentType" : 5126
        },
        {
            "bufferView" : 10,
            "componentType" : 5126,
            "count" : 150,
            "type" : "VEC3"
        },
        {
            "bufferView" : 11,
            "componentType" : 5123,
            "count" : 300,
            "type" : "SCALAR"
        },
        {
            "bufferView" : 12,
            "type" : "VEC3",
            "max" : [
                1.5,
                0.5,
                2.5
            ],
            "min" : [
                -0.5,
                -1.5,
                -0.5
            ],
            "count" : 118,
            "componentType" : 5126
        },
        {
            "bufferView" : 13,
            "componentType" : 5126,
            "count" : 118,
            "type" : "VEC3"
        },
        {
            "bufferView" : 14,
            "componentType" : 5123,
            "count" : 216,
            "type" : "SCALAR"
        },
        {
            "bufferView" : 15,
            "type" : "VEC3",
            "max" : [
                1.5,
                3.5,
                1.5
            ],
            "min" : [
                -1.5,
                -0.5,
                -0.5
            ],
            "count" : 104,
            "componentType" : 5126
        },
        {
            "bufferView" : 16,
            "componentType" : 5126,
            "count" : 104,
            "type" : "VEC3"
        },
        {
            "bufferView" : 17,
            "componentType" : 5123,
            "count" : 204,
            "type" : "SCALAR"
        },
        {
            "bufferView" : 18,
            "type" : "VEC3",
            "max" : [
                6.5,
                3.5000009536743164,
                1.5000009536743164
            ],
            "min" : [
                -1.5000004768371582,
                -2.499999523162842,
                -6.5
            ],
            "count" : 348,
            "componentType" : 5126
        },
        {
            "bufferView" : 19,
            "componentType" : 5126,
            "count" : 348,
            "type" : "VEC3"
        },
        {
            "bufferView" : 20,
            "componentType" : 5123,
            "count" : 540,
            "type" : "SCALAR"
        },
        {
            "bufferView" : 21,
            "type" : "SCALAR",
            "max" : [
                12
            ],
            "min" : [
                0
            ],
            "count" : 289,
            "componentType" : 5126
        },
        {
            "bufferView" : 22,
            "componentType" : 5126,
            "count" : 289,
            "type" : "VEC3"
        }
    ],
    "bufferViews" : [
        {
            "byteOffset" : 0,
            "buffer" : 0,
            "byteLength" : 744
        },
        {
            "byteOffset" : 744,
            "buffer" : 0,
            "byteLength" : 744
        },
        {
            "byteOffset" : 1488,
            "buffer" : 0,
            "byteLength" : 228
        },
        {
            "byteOffset" : 1716,
            "buffer" : 0,
            "byteLength" : 1536
        },
        {
            "byteOffset" : 3252,
            "buffer" : 0,
            "byteLength" : 1536
        },
        {
            "byteOffset" : 4788,
            "buffer" : 0,
            "byteLength" : 552
        },
        {
            "byteOffset" : 5340,
            "buffer" : 0,
            "byteLength" : 1188
        },
        {
            "byteOffset" : 6528,
            "buffer" : 0,
            "byteLength" : 1188
        },
        {
            "byteOffset" : 7716,
            "buffer" : 0,
            "byteLength" : 384
        },
        {
            "byteOffset" : 8100,
            "buffer" : 0,
            "byteLength" : 1800
        },
        {
            "byteOffset" : 9900,
            "buffer" : 0,
            "byteLength" : 1800
        },
        {
            "byteOffset" : 11700,
            "buffer" : 0,
            "byteLength" : 600
        },
        {
            "byteOffset" : 12300,
            "buffer" : 0,
            "byteLength" : 1416
        },
        {
            "byteOffset" : 13716,
            "buffer" : 0,
            "byteLength" : 1416
        },
        {
            "byteOffset" : 15132,
            "buffer" : 0,
            "byteLength" : 432
        },
        {
            "byteOffset" : 15564,
            "buffer" : 0,
            "byteLength" : 1248
        },
        {
            "byteOffset" : 16812,
            "buffer" : 0,
            "byteLength" : 1248
        },
        {
            "byteOffset" : 18060,
            "buffer" : 0,
            "byteLength" : 408
        },
        {
            "byteOffset" : 18468,
            "buffer" : 0,
            "byteLength" : 4176
        },
        {
            "byteOffset" : 22644,
            "buffer" : 0,
            "byteLength" : 4176
        },
        {
            "byteOffset" : 26820,
            "buffer" : 0,
            "byteLength" : 1080
        },
        {
            "byteOffset" : 27900,
            "buffer" : 0,
            "byteLength" : 1156
        },
        {
            "byteOffset" : 29056,
            "buffer" : 0,
            "byteLength" : 3468
        }
    ],
    "buffers" : [
        {
            "uri" : "data:application/octet-stream;base64,",
            "byteLength" : 32524
        }
    ]
}
